<svg xmlns="http://www.w3.org/2000/svg" viewBox="0 0 200 200" width="200" height="200">
  <!-- Full icon in disabled/inactive/greyscale state -->

  <!-- Three containers (desaturated) -->
  <rect x="30" y="80" width="38" height="45" rx="3" fill="#2a3040"/>
  <rect x="78" y="70" width="38" height="55" rx="3" fill="#3a4555"/>
  <rect x="126" y="85" width="38" height="40" rx="3" fill="#2a3040"/>

  <!-- "TW" labels (muted) -->
  <text x="49" y="100" font-family="'Segoe UI', Arial, sans-serif" font-size="11" font-weight="700" fill="#556070" text-anchor="middle" opacity="0.5">TW</text>
  <text x="97" y="95" font-family="'Segoe UI', Arial, sans-serif" font-size="13" font-weight="700" fill="#667080" text-anchor="middle" opacity="0.5">TW</text>
  <text x="145" y="103" font-family="'Segoe UI', Arial, sans-serif" font-size="11" font-weight="700" fill="#556070" text-anchor="middle" opacity="0.5">TW</text>

  <!-- Tiddler card icons (muted) -->
  <rect x="42" y="104" width="10" height="12" rx="1.5" fill="none" stroke="#556070" stroke-width="1.2" opacity="0.35"/>
  <line x1="44" y1="108" x2="50" y2="108" stroke="#556070" stroke-width="0.8" opacity="0.25"/>
  <line x1="44" y1="111" x2="49" y2="111" stroke="#556070" stroke-width="0.8" opacity="0.2"/>

  <rect x="90" y="100" width="11" height="14" rx="1.5" fill="none" stroke="#667080" stroke-width="1.2" opacity="0.35"/>
  <line x1="92" y1="105" x2="99" y2="105" stroke="#667080" stroke-width="0.8" opacity="0.25"/>
  <line x1="92" y1="108" x2="98" y2="108" stroke="#667080" stroke-width="0.8" opacity="0.2"/>

  <rect x="139" y="107" width="10" height="12" rx="1.5" fill="none" stroke="#556070" stroke-width="1.2" opacity="0.35"/>
  <line x1="141" y1="111" x2="147" y2="111" stroke="#556070" stroke-width="0.8" opacity="0.25"/>
  <line x1="141" y1="114" x2="146" y2="114" stroke="#556070" stroke-width="0.8" opacity="0.2"/>

  <!-- Connection lines (barely visible) -->
  <line x1="58" y1="99" x2="84" y2="94" stroke="#4a5060" stroke-width="1.5" opacity="0.25"/>
  <line x1="110" y1="94" x2="136" y2="102" stroke="#4a5060" stroke-width="1.5" opacity="0.25"/>

  <!-- Dock line -->
  <line x1="20" y1="125" x2="180" y2="125" stroke="#3a4555" stroke-width="4" stroke-linecap="round"/>

  <!-- Water -->
  <path d="M15,140 Q40,133 65,140 Q90,147 115,140 Q140,133 165,140 Q180,147 190,140" fill="none" stroke="#3a4555" stroke-width="2" stroke-linecap="round" opacity="0.35"/>
  <path d="M10,152 Q40,145 70,152 Q100,159 130,152 Q160,145 185,152" fill="none" stroke="#3a4555" stroke-width="1.5" stroke-linecap="round" opacity="0.2"/>
</svg>
