<svg xmlns="http://www.w3.org/2000/svg" viewBox="0 0 480 120" width="480" height="120">
  <!-- Wordmark in disabled/inactive state -->

  <!-- Icon in circle (muted) -->
  <g transform="translate(10, 5)">
    <circle cx="55" cy="55" r="52" fill="#1a1f26"/>

    <!-- Containers -->
    <rect x="20" y="42" width="22" height="28" rx="2" fill="#2a3040"/>
    <rect x="47" y="35" width="22" height="35" rx="2" fill="#3a4555"/>
    <rect x="74" y="45" width="20" height="25" rx="2" fill="#2a3040"/>

    <!-- TW labels -->
    <text x="31" y="56" font-family="'Segoe UI', Arial, sans-serif" font-size="7.5" font-weight="700" fill="#556070" text-anchor="middle" opacity="0.6">TW</text>
    <text x="58" y="53" font-family="'Segoe UI', Arial, sans-serif" font-size="8.5" font-weight="700" fill="#667080" text-anchor="middle" opacity="0.6">TW</text>
    <text x="84" y="58" font-family="'Segoe UI', Arial, sans-serif" font-size="7" font-weight="700" fill="#556070" text-anchor="middle" opacity="0.6">TW</text>

    <!-- Cards (muted) -->
    <rect x="26" y="59" width="7" height="8" rx="1" fill="none" stroke="#556070" stroke-width="0.8" opacity="0.35"/>
    <rect x="53" y="56" width="7.5" height="9" rx="1" fill="none" stroke="#667080" stroke-width="0.8" opacity="0.35"/>
    <rect x="79" y="61" width="7" height="8" rx="1" fill="none" stroke="#556070" stroke-width="0.8" opacity="0.35"/>

    <!-- Connection lines -->
    <line x1="37" y1="55" x2="50" y2="52" stroke="#4a5060" stroke-width="1" opacity="0.2"/>
    <line x1="66" y1="52" x2="77" y2="57" stroke="#4a5060" stroke-width="1" opacity="0.2"/>

    <!-- Dock -->
    <line x1="14" y1="72" x2="96" y2="72" stroke="#3a4555" stroke-width="2.5" stroke-linecap="round"/>

    <!-- Water -->
    <path d="M14,80 Q34,76 55,80 Q76,84 96,80" fill="none" stroke="#3a4555" stroke-width="1.5" stroke-linecap="round" opacity="0.3"/>
  </g>

  <!-- Text (muted) -->
  <text x="130" y="68" font-family="'Segoe UI', 'Helvetica Neue', Arial, sans-serif" font-size="46" font-weight="600" fill="#667080">
    <tspan fill="#556070">Tiddly</tspan><tspan fill="#667080">Harbor</tspan>
  </text>

  <!-- Tagline -->
  <text x="132" y="91" font-family="'Segoe UI', 'Helvetica Neue', Arial, sans-serif" font-size="14" fill="#3a4555" letter-spacing="2">
    MULTI-WIKI HOSTING PLATFORM
  </text>
</svg>
